<svg width="54" height="55" viewBox="0 0 54 55" fill="none" xmlns="http://www.w3.org/2000/svg">
<g clip-path="url(#clip0_2005_428)">
<path d="M4.21875 7.25H8.4375L16.1895 35.1528C16.3867 35.8634 16.8114 36.4899 17.3984 36.9363C17.9854 37.3828 18.7025 37.6247 19.44 37.625H40.2891C41.0269 37.6251 41.7445 37.3835 42.332 36.937C42.9194 36.4905 43.3443 35.8638 43.5417 35.1528L48.9375 15.6875H10.781" stroke="#FF7B06" stroke-width="4" stroke-linecap="round" stroke-linejoin="round"/>
<path d="M4.21875 7.25H8.4375L16.1895 35.1528C16.3867 35.8634 16.8114 36.4899 17.3984 36.9363C17.9854 37.3828 18.7025 37.6247 19.44 37.625H40.2891C41.0269 37.6251 41.7445 37.3835 42.332 36.937C42.9194 36.4905 43.3443 35.8638 43.5417 35.1528L48.9375 15.6875H10.781" stroke="black" stroke-opacity="0.2" stroke-width="4" stroke-linecap="round" stroke-linejoin="round"/>
<path d="M18.5625 42.75C20.8579 42.75 22.7188 44.6108 22.7188 46.9062C22.7188 49.2017 20.8579 51.0625 18.5625 51.0625C16.2671 51.0625 14.4062 49.2017 14.4062 46.9062C14.4062 44.6108 16.2671 42.75 18.5625 42.75Z" fill="#FF7B06"/>
<path d="M18.5625 42.75C20.8579 42.75 22.7188 44.6108 22.7188 46.9062C22.7188 49.2017 20.8579 51.0625 18.5625 51.0625C16.2671 51.0625 14.4062 49.2017 14.4062 46.9062C14.4062 44.6108 16.2671 42.75 18.5625 42.75Z" fill="black" fill-opacity="0.2"/>
<path d="M18.5625 42.75C20.8579 42.75 22.7188 44.6108 22.7188 46.9062C22.7188 49.2017 20.8579 51.0625 18.5625 51.0625C16.2671 51.0625 14.4062 49.2017 14.4062 46.9062C14.4062 44.6108 16.2671 42.75 18.5625 42.75Z" stroke="#FF7B06" stroke-width="0.125"/>
<path d="M18.5625 42.75C20.8579 42.75 22.7188 44.6108 22.7188 46.9062C22.7188 49.2017 20.8579 51.0625 18.5625 51.0625C16.2671 51.0625 14.4062 49.2017 14.4062 46.9062C14.4062 44.6108 16.2671 42.75 18.5625 42.75Z" stroke="black" stroke-opacity="0.2" stroke-width="0.125"/>
<path d="M40.5 42.75C42.7954 42.75 44.6562 44.6108 44.6562 46.9062C44.6562 49.2017 42.7954 51.0625 40.5 51.0625C38.2046 51.0625 36.3438 49.2017 36.3438 46.9062C36.3438 44.6108 38.2046 42.75 40.5 42.75Z" fill="#FF7B06"/>
<path d="M40.5 42.75C42.7954 42.75 44.6562 44.6108 44.6562 46.9062C44.6562 49.2017 42.7954 51.0625 40.5 51.0625C38.2046 51.0625 36.3438 49.2017 36.3438 46.9062C36.3438 44.6108 38.2046 42.75 40.5 42.75Z" fill="black" fill-opacity="0.2"/>
<path d="M40.5 42.75C42.7954 42.75 44.6562 44.6108 44.6562 46.9062C44.6562 49.2017 42.7954 51.0625 40.5 51.0625C38.2046 51.0625 36.3438 49.2017 36.3438 46.9062C36.3438 44.6108 38.2046 42.75 40.5 42.75Z" stroke="#FF7B06" stroke-width="0.125"/>
<path d="M40.5 42.75C42.7954 42.75 44.6562 44.6108 44.6562 46.9062C44.6562 49.2017 42.7954 51.0625 40.5 51.0625C38.2046 51.0625 36.3438 49.2017 36.3438 46.9062C36.3438 44.6108 38.2046 42.75 40.5 42.75Z" stroke="black" stroke-opacity="0.2" stroke-width="0.125"/>
</g>
<defs>
<clipPath id="clip0_2005_428">
<rect width="54" height="54" fill="white" transform="translate(0 0.5)"/>
</clipPath>
</defs>
</svg>
