<svg width="33" height="32" viewBox="0 0 33 32" fill="none" xmlns="http://www.w3.org/2000/svg">
<g clip-path="url(#clip0_148_132)">
<path d="M16.5 20.5C18.9853 20.5 21 18.4853 21 16C21 13.5147 18.9853 11.5 16.5 11.5C14.0147 11.5 12 13.5147 12 16C12 18.4853 14.0147 20.5 16.5 20.5Z" stroke="#FF7B06" stroke-width="3" stroke-linecap="round" stroke-linejoin="round"/>
<path d="M16.5 20.5C18.9853 20.5 21 18.4853 21 16C21 13.5147 18.9853 11.5 16.5 11.5C14.0147 11.5 12 13.5147 12 16C12 18.4853 14.0147 20.5 16.5 20.5Z" stroke="black" stroke-opacity="0.2" stroke-width="3" stroke-linecap="round" stroke-linejoin="round"/>
<path d="M22.5 4H10.5C7.18629 4 4.5 6.68629 4.5 10V22C4.5 25.3137 7.18629 28 10.5 28H22.5C25.8137 28 28.5 25.3137 28.5 22V10C28.5 6.68629 25.8137 4 22.5 4Z" stroke="#FF7B06" stroke-width="3" stroke-linecap="round" stroke-linejoin="round"/>
<path d="M22.5 4H10.5C7.18629 4 4.5 6.68629 4.5 10V22C4.5 25.3137 7.18629 28 10.5 28H22.5C25.8137 28 28.5 25.3137 28.5 22V10C28.5 6.68629 25.8137 4 22.5 4Z" stroke="black" stroke-opacity="0.2" stroke-width="3" stroke-linecap="round" stroke-linejoin="round"/>
<path d="M23 7.5625C24.0701 7.5625 24.9375 8.42995 24.9375 9.5C24.9375 10.5701 24.0701 11.4375 23 11.4375C21.9299 11.4375 21.0625 10.5701 21.0625 9.5C21.0625 8.42995 21.9299 7.5625 23 7.5625Z" fill="#FF7B06"/>
<path d="M23 7.5625C24.0701 7.5625 24.9375 8.42995 24.9375 9.5C24.9375 10.5701 24.0701 11.4375 23 11.4375C21.9299 11.4375 21.0625 10.5701 21.0625 9.5C21.0625 8.42995 21.9299 7.5625 23 7.5625Z" fill="black" fill-opacity="0.2"/>
<path d="M23 7.5625C24.0701 7.5625 24.9375 8.42995 24.9375 9.5C24.9375 10.5701 24.0701 11.4375 23 11.4375C21.9299 11.4375 21.0625 10.5701 21.0625 9.5C21.0625 8.42995 21.9299 7.5625 23 7.5625Z" stroke="#FF7B06" stroke-width="0.125"/>
<path d="M23 7.5625C24.0701 7.5625 24.9375 8.42995 24.9375 9.5C24.9375 10.5701 24.0701 11.4375 23 11.4375C21.9299 11.4375 21.0625 10.5701 21.0625 9.5C21.0625 8.42995 21.9299 7.5625 23 7.5625Z" stroke="black" stroke-opacity="0.2" stroke-width="0.125"/>
</g>
<defs>
<clipPath id="clip0_148_132">
<rect width="32" height="32" fill="white" transform="translate(0.5)"/>
</clipPath>
</defs>
</svg>
