<svg width="33" height="32" viewBox="0 0 33 32" fill="none" xmlns="http://www.w3.org/2000/svg">
<g clip-path="url(#clip0_148_137)">
<path d="M21.5 12.75C23.5387 14.2174 25.9881 15.0047 28.5 15V10C26.6435 10 24.863 9.2625 23.5503 7.94975C22.2375 6.63699 21.5 4.85652 21.5 3H16.5V19.5C16.4997 20.1263 16.3314 20.741 16.0126 21.2801C15.6938 21.8192 15.2362 22.2629 14.6875 22.5648C14.1389 22.8668 13.5192 23.016 12.8932 22.9969C12.2672 22.9778 11.6578 22.7911 11.1285 22.4562C10.5993 22.1213 10.1696 21.6505 9.8843 21.093C9.59898 20.5355 9.46849 19.9116 9.50643 19.2865C9.54437 18.6613 9.74936 18.0578 10.1 17.5389C10.4507 17.02 10.9341 16.6047 11.5 16.3363V11C7.52125 11.7088 4.5 15.3175 4.5 19.5C4.5 21.7543 5.39553 23.9163 6.98959 25.5104C8.58365 27.1045 10.7457 28 13 28C15.2543 28 17.4163 27.1045 19.0104 25.5104C20.6045 23.9163 21.5 21.7543 21.5 19.5V12.75Z" stroke="#FF7B06" stroke-width="3" stroke-linecap="round" stroke-linejoin="round"/>
<path d="M21.5 12.75C23.5387 14.2174 25.9881 15.0047 28.5 15V10C26.6435 10 24.863 9.2625 23.5503 7.94975C22.2375 6.63699 21.5 4.85652 21.5 3H16.5V19.5C16.4997 20.1263 16.3314 20.741 16.0126 21.2801C15.6938 21.8192 15.2362 22.2629 14.6875 22.5648C14.1389 22.8668 13.5192 23.016 12.8932 22.9969C12.2672 22.9778 11.6578 22.7911 11.1285 22.4562C10.5993 22.1213 10.1696 21.6505 9.8843 21.093C9.59898 20.5355 9.46849 19.9116 9.50643 19.2865C9.54437 18.6613 9.74936 18.0578 10.1 17.5389C10.4507 17.02 10.9341 16.6047 11.5 16.3363V11C7.52125 11.7088 4.5 15.3175 4.5 19.5C4.5 21.7543 5.39553 23.9163 6.98959 25.5104C8.58365 27.1045 10.7457 28 13 28C15.2543 28 17.4163 27.1045 19.0104 25.5104C20.6045 23.9163 21.5 21.7543 21.5 19.5V12.75Z" stroke="black" stroke-opacity="0.2" stroke-width="3" stroke-linecap="round" stroke-linejoin="round"/>
</g>
<defs>
<clipPath id="clip0_148_137">
<rect width="32" height="32" fill="white" transform="translate(0.5)"/>
</clipPath>
</defs>
</svg>
