<svg width="1440" height="303" viewBox="0 0 1440 303" fill="none" xmlns="http://www.w3.org/2000/svg">
<path d="M1390.45 36.2158C1427.73 -50.3879 1427.72 36.216 1465 120.783V322.006H-26C11.275 38.5624 85.8246 38.5626 123.1 140.278C160.375 241.994 160.375 140.278 197.65 75.9649C234.925 11.6524 234.925 75.9657 272.2 138.468C309.475 200.969 309.475 138.468 346.75 81.4053C384.025 24.3428 384.025 81.4053 421.3 148.368C458.575 215.331 458.575 148.368 495.85 79.6699C533.125 10.9717 533.125 79.6693 570.4 116.325C607.675 152.981 607.675 116.325 644.95 37.499C682.225 -41.3263 682.225 37.4996 719.5 158.191C756.775 278.883 756.775 158.192 794.05 90.9277C831.325 23.6639 831.326 90.928 868.601 152.657C905.875 214.386 905.875 152.656 943.15 64.3945C980.425 -23.867 980.425 64.3946 1017.7 124.622C1054.98 184.85 1054.98 124.623 1092.25 98.7295C1129.52 72.8364 1129.52 98.7293 1166.8 145.56C1204.07 192.39 1204.08 145.559 1241.35 87.0332C1278.63 28.5075 1278.63 87.0334 1315.9 122.819C1353.18 158.605 1353.18 122.819 1390.45 36.2158Z" fill="#FFF1DE"/>
</svg>
