<svg width="33" height="32" viewBox="0 0 33 32" fill="none" xmlns="http://www.w3.org/2000/svg">
<g clip-path="url(#clip0_148_142)">
<path d="M19.5 22.0001C17.1139 21.9975 14.8262 21.0484 13.139 19.3612C11.4517 17.6739 10.5026 15.3863 10.5 13.0001C10.4998 12.3065 10.74 11.6343 11.1796 11.0978C11.6192 10.5613 12.2311 10.1937 12.9113 10.0576L14.3462 12.9326L12.8313 15.2001L13.0375 15.7001C13.753 17.4006 15.1058 18.7534 16.8062 19.4689L17.3062 19.6751L19.5775 18.1601L22.4525 19.5951C22.3148 20.2758 21.9452 20.8876 21.4068 21.3261C20.8683 21.7647 20.1944 22.0029 19.5 22.0001Z" fill="#FF7B06"/>
<path d="M19.5 22.0001C17.1139 21.9975 14.8262 21.0484 13.139 19.3612C11.4517 17.6739 10.5026 15.3863 10.5 13.0001C10.4998 12.3065 10.74 11.6343 11.1796 11.0978C11.6192 10.5613 12.2311 10.1937 12.9113 10.0576L14.3462 12.9326L12.8313 15.2001L13.0375 15.7001C13.753 17.4006 15.1058 18.7534 16.8062 19.4689L17.3062 19.6751L19.5775 18.1601L22.4525 19.5951C22.3148 20.2758 21.9452 20.8876 21.4068 21.3261C20.8683 21.7647 20.1944 22.0029 19.5 22.0001Z" fill="black" fill-opacity="0.2"/>
<path d="M19.5 22.0001C17.1139 21.9975 14.8262 21.0484 13.139 19.3612C11.4517 17.6739 10.5026 15.3863 10.5 13.0001C10.4998 12.3065 10.74 11.6343 11.1796 11.0978C11.6192 10.5613 12.2311 10.1937 12.9113 10.0576L14.3462 12.9326L12.8313 15.2001L13.0375 15.7001C13.753 17.4006 15.1058 18.7534 16.8062 19.4689L17.3062 19.6751L19.5775 18.1601L22.4525 19.5951C22.3148 20.2758 21.9452 20.8876 21.4068 21.3261C20.8683 21.7647 20.1944 22.0029 19.5 22.0001Z" stroke="#FF7B06" stroke-linecap="round" stroke-linejoin="round"/>
<path d="M19.5 22.0001C17.1139 21.9975 14.8262 21.0484 13.139 19.3612C11.4517 17.6739 10.5026 15.3863 10.5 13.0001C10.4998 12.3065 10.74 11.6343 11.1796 11.0978C11.6192 10.5613 12.2311 10.1937 12.9113 10.0576L14.3462 12.9326L12.8313 15.2001L13.0375 15.7001C13.753 17.4006 15.1058 18.7534 16.8062 19.4689L17.3062 19.6751L19.5775 18.1601L22.4525 19.5951C22.3148 20.2758 21.9452 20.8876 21.4068 21.3261C20.8683 21.7647 20.1944 22.0029 19.5 22.0001Z" stroke="black" stroke-opacity="0.2" stroke-linecap="round" stroke-linejoin="round"/>
<path d="M10.4913 26.3887C13.0119 27.8475 15.9771 28.3399 18.834 27.774C21.6909 27.2081 24.2445 25.6225 26.0186 23.3129C27.7928 21.0032 28.6665 18.1272 28.4768 15.221C28.287 12.3148 27.0469 9.57679 24.9875 7.51742C22.9281 5.45805 20.1901 4.2179 17.2839 4.02819C14.3777 3.83847 11.5017 4.71215 9.19208 6.48632C6.88246 8.26049 5.29688 10.8141 4.73096 13.6709C4.16505 16.5278 4.65742 19.493 6.11627 22.0137L4.55252 26.6824C4.49376 26.8586 4.48523 27.0477 4.52789 27.2285C4.57056 27.4092 4.66272 27.5745 4.79405 27.7059C4.92539 27.8372 5.09071 27.9294 5.27148 27.972C5.45225 28.0147 5.64132 28.0062 5.81752 27.9474L10.4913 26.3887Z" stroke="#FF7B06" stroke-width="3" stroke-linecap="round" stroke-linejoin="round"/>
<path d="M10.4913 26.3887C13.0119 27.8475 15.9771 28.3399 18.834 27.774C21.6909 27.2081 24.2445 25.6225 26.0186 23.3129C27.7928 21.0032 28.6665 18.1272 28.4768 15.221C28.287 12.3148 27.0469 9.57679 24.9875 7.51742C22.9281 5.45805 20.1901 4.2179 17.2839 4.02819C14.3777 3.83847 11.5017 4.71215 9.19208 6.48632C6.88246 8.26049 5.29688 10.8141 4.73096 13.6709C4.16505 16.5278 4.65742 19.493 6.11627 22.0137L4.55252 26.6824C4.49376 26.8586 4.48523 27.0477 4.52789 27.2285C4.57056 27.4092 4.66272 27.5745 4.79405 27.7059C4.92539 27.8372 5.09071 27.9294 5.27148 27.972C5.45225 28.0147 5.64132 28.0062 5.81752 27.9474L10.4913 26.3887Z" stroke="black" stroke-opacity="0.2" stroke-width="3" stroke-linecap="round" stroke-linejoin="round"/>
</g>
<defs>
<clipPath id="clip0_148_142">
<rect width="32" height="32" fill="white" transform="translate(0.5)"/>
</clipPath>
</defs>
</svg>
